<?xml version="1.0" encoding="UTF-8"?>
<svg xmlns="http://www.w3.org/2000/svg" xmlns:xlink="http://www.w3.org/1999/xlink" width="16pt" height="16pt" viewBox="0 0 16 16" version="1.1">
<g id="surface1">
<path style=" stroke:none;fill-rule:nonzero;fill:rgb(94.117647%,76.862745%,54.117647%);fill-opacity:1;" d="M 1.53125 8 C 1.53125 11.574219 4.425781 14.46875 8 14.46875 C 11.574219 14.46875 14.46875 11.574219 14.46875 8 C 14.46875 4.425781 11.574219 1.53125 8 1.53125 C 4.425781 1.53125 1.53125 4.425781 1.53125 8 Z M 1.53125 8 "/>
<path style=" stroke:none;fill-rule:nonzero;fill:rgb(100%,100%,100%);fill-opacity:1;" d="M 3.882812 4.007812 L 9.992188 4.007812 L 9.992188 11.992188 L 3.882812 11.992188 Z M 3.882812 4.007812 "/>
<path style=" stroke:none;fill-rule:nonzero;fill:rgb(82.745098%,90.196078%,97.254902%);fill-opacity:1;" d="M 4.820312 4.882812 L 9.195312 4.882812 L 9.195312 6.554688 L 4.820312 6.554688 Z M 4.820312 4.882812 "/>
<path style=" stroke:none;fill-rule:nonzero;fill:rgb(64.313725%,81.176471%,94.901961%);fill-opacity:1;" d="M 8.566406 4.882812 L 9.195312 4.882812 L 9.195312 6.554688 L 8.566406 6.554688 Z M 8.566406 4.882812 "/>
<path style=" stroke:none;fill-rule:nonzero;fill:rgb(82.745098%,90.196078%,97.254902%);fill-opacity:1;" d="M 9.054688 4.007812 L 9.992188 4.007812 L 9.992188 11.992188 L 9.054688 11.992188 Z M 9.054688 4.007812 "/>
<path style=" stroke:none;fill-rule:nonzero;fill:rgb(29.803922%,26.27451%,44.705882%);fill-opacity:1;" d="M 9.992188 12.136719 L 3.882812 12.136719 C 3.800781 12.136719 3.734375 12.070312 3.734375 11.992188 L 3.734375 4.007812 C 3.734375 3.929688 3.800781 3.863281 3.882812 3.863281 L 9.992188 3.863281 C 10.074219 3.863281 10.140625 3.929688 10.140625 4.007812 L 10.140625 11.992188 C 10.140625 12.070312 10.074219 12.136719 9.992188 12.136719 Z M 4.03125 11.84375 L 9.84375 11.84375 L 9.84375 4.15625 L 4.03125 4.15625 Z M 4.03125 11.84375 "/>
<path style=" stroke:none;fill-rule:nonzero;fill:rgb(29.803922%,26.27451%,44.705882%);fill-opacity:1;" d="M 5.476562 5.214844 C 5.503906 5.214844 5.523438 5.238281 5.523438 5.261719 L 5.523438 5.289062 C 5.589844 5.296875 5.644531 5.316406 5.695312 5.347656 C 5.714844 5.359375 5.730469 5.375 5.730469 5.402344 C 5.730469 5.4375 5.703125 5.460938 5.667969 5.460938 C 5.65625 5.460938 5.644531 5.460938 5.632812 5.453125 C 5.59375 5.429688 5.558594 5.414062 5.519531 5.402344 L 5.519531 5.617188 C 5.6875 5.65625 5.761719 5.726562 5.761719 5.84375 C 5.761719 5.964844 5.664062 6.046875 5.523438 6.058594 L 5.523438 6.125 C 5.523438 6.152344 5.503906 6.171875 5.476562 6.171875 C 5.449219 6.171875 5.429688 6.152344 5.429688 6.125 L 5.429688 6.054688 C 5.347656 6.046875 5.269531 6.019531 5.203125 5.96875 C 5.183594 5.957031 5.171875 5.941406 5.171875 5.917969 C 5.171875 5.882812 5.199219 5.855469 5.234375 5.855469 C 5.246094 5.855469 5.261719 5.859375 5.269531 5.867188 C 5.320312 5.90625 5.371094 5.929688 5.433594 5.941406 L 5.433594 5.726562 C 5.273438 5.683594 5.195312 5.621094 5.195312 5.496094 C 5.195312 5.378906 5.289062 5.296875 5.429688 5.285156 L 5.429688 5.261719 C 5.429688 5.238281 5.449219 5.214844 5.476562 5.214844 Z M 5.433594 5.59375 L 5.433594 5.398438 C 5.363281 5.402344 5.328125 5.441406 5.328125 5.488281 C 5.328125 5.535156 5.347656 5.566406 5.433594 5.59375 Z M 5.519531 5.746094 L 5.519531 5.945312 C 5.589844 5.9375 5.628906 5.902344 5.628906 5.851562 C 5.628906 5.800781 5.605469 5.773438 5.519531 5.746094 Z M 9.054688 7.585938 L 4.820312 7.585938 C 4.742188 7.585938 4.675781 7.519531 4.675781 7.4375 C 4.675781 7.359375 4.742188 7.292969 4.820312 7.292969 L 9.054688 7.292969 C 9.136719 7.292969 9.199219 7.359375 9.199219 7.4375 C 9.199219 7.519531 9.136719 7.585938 9.054688 7.585938 Z M 9.054688 8.8125 L 4.820312 8.8125 C 4.742188 8.8125 4.675781 8.746094 4.675781 8.664062 C 4.675781 8.585938 4.742188 8.519531 4.820312 8.515625 L 9.054688 8.515625 C 9.136719 8.519531 9.199219 8.585938 9.199219 8.664062 C 9.199219 8.746094 9.136719 8.8125 9.054688 8.8125 Z M 9.054688 10.039062 L 4.820312 10.039062 C 4.742188 10.035156 4.675781 9.96875 4.675781 9.890625 C 4.675781 9.808594 4.742188 9.742188 4.820312 9.742188 L 9.054688 9.742188 C 9.136719 9.742188 9.199219 9.808594 9.199219 9.890625 C 9.199219 9.96875 9.136719 10.035156 9.054688 10.039062 Z M 8.203125 11.261719 L 4.820312 11.261719 C 4.742188 11.261719 4.675781 11.195312 4.675781 11.117188 C 4.675781 11.035156 4.742188 10.96875 4.820312 10.96875 L 8.203125 10.96875 C 8.28125 10.96875 8.347656 11.035156 8.347656 11.117188 C 8.347656 11.195312 8.28125 11.261719 8.203125 11.261719 Z M 8.203125 11.261719 "/>
<path style=" stroke:none;fill-rule:nonzero;fill:rgb(29.803922%,26.27451%,44.705882%);fill-opacity:1;" d="M 9.195312 6.699219 L 4.820312 6.699219 C 4.738281 6.699219 4.671875 6.632812 4.671875 6.554688 L 4.671875 4.882812 C 4.671875 4.804688 4.738281 4.738281 4.820312 4.738281 L 9.195312 4.738281 C 9.277344 4.738281 9.34375 4.804688 9.34375 4.882812 L 9.34375 6.554688 C 9.34375 6.632812 9.277344 6.699219 9.195312 6.699219 Z M 4.96875 6.40625 L 9.046875 6.40625 L 9.046875 5.03125 L 4.96875 5.03125 Z M 4.96875 6.40625 "/>
<path style=" stroke:none;fill-rule:nonzero;fill:rgb(29.803922%,26.27451%,44.705882%);fill-opacity:1;" d="M 8.566406 5.867188 L 6.296875 5.867188 C 6.214844 5.863281 6.152344 5.800781 6.152344 5.71875 C 6.152344 5.636719 6.214844 5.574219 6.296875 5.570312 L 8.566406 5.570312 C 8.644531 5.574219 8.710938 5.636719 8.710938 5.71875 C 8.710938 5.800781 8.644531 5.863281 8.566406 5.867188 Z M 8.566406 5.867188 "/>
<path style=" stroke:none;fill-rule:nonzero;fill:rgb(90.980392%,40.392157%,49.019608%);fill-opacity:1;" d="M 8.371094 10.800781 C 8.496094 10.871094 8.648438 10.855469 8.761719 10.769531 C 8.96875 10.605469 9.144531 10.402344 9.269531 10.167969 L 8.421875 9.703125 C 8.292969 9.9375 8.214844 10.191406 8.191406 10.453125 C 8.175781 10.597656 8.246094 10.734375 8.371094 10.800781 Z M 8.371094 10.800781 "/>
<path style=" stroke:none;fill-rule:nonzero;fill:rgb(99.215686%,56.862745%,61.960784%);fill-opacity:1;" d="M 8.421875 9.703125 L 11.058594 4.878906 L 11.910156 5.34375 L 9.269531 10.167969 Z M 8.421875 9.703125 "/>
<path style=" stroke:none;fill-rule:nonzero;fill:rgb(90.980392%,40.392157%,49.019608%);fill-opacity:1;" d="M 8.953125 9.996094 L 11.59375 5.171875 L 11.910156 5.34375 L 9.269531 10.167969 Z M 8.953125 9.996094 "/>
<path style=" stroke:none;fill-rule:nonzero;fill:rgb(29.803922%,26.27451%,44.705882%);fill-opacity:1;" d="M 9.269531 10.316406 C 9.246094 10.316406 9.222656 10.308594 9.199219 10.296875 L 8.347656 9.832031 C 8.277344 9.792969 8.25 9.703125 8.289062 9.632812 L 10.929688 4.808594 C 10.96875 4.738281 11.058594 4.710938 11.132812 4.75 L 11.980469 5.214844 C 12.054688 5.253906 12.078125 5.34375 12.039062 5.414062 L 9.398438 10.238281 C 9.375 10.289062 9.324219 10.316406 9.269531 10.316406 Z M 8.621094 9.644531 L 9.210938 9.96875 L 11.710938 5.402344 L 11.121094 5.078125 Z M 8.621094 9.644531 "/>
<path style=" stroke:none;fill-rule:nonzero;fill:rgb(29.803922%,26.27451%,44.705882%);fill-opacity:1;" d="M 8.539062 10.992188 C 8.457031 10.992188 8.375 10.972656 8.300781 10.929688 C 8.125 10.835938 8.023438 10.640625 8.042969 10.441406 C 8.070312 10.15625 8.152344 9.882812 8.289062 9.632812 C 8.332031 9.5625 8.417969 9.535156 8.492188 9.574219 L 9.339844 10.039062 C 9.414062 10.078125 9.4375 10.167969 9.398438 10.238281 C 9.265625 10.488281 9.078125 10.710938 8.851562 10.882812 C 8.765625 10.953125 8.652344 10.992188 8.539062 10.992188 Z M 8.484375 9.90625 C 8.40625 10.085938 8.355469 10.273438 8.335938 10.46875 C 8.328125 10.554688 8.371094 10.632812 8.441406 10.671875 C 8.515625 10.710938 8.605469 10.703125 8.671875 10.652344 C 8.824219 10.53125 8.957031 10.386719 9.066406 10.226562 Z M 8.484375 9.90625 "/>
<path style=" stroke:none;fill-rule:nonzero;fill:rgb(29.803922%,26.27451%,44.705882%);fill-opacity:1;" d="M 8.203125 11.261719 C 8.148438 11.261719 8.101562 11.230469 8.074219 11.1875 C 8.046875 11.144531 8.046875 11.085938 8.074219 11.042969 L 8.242188 10.730469 C 8.28125 10.660156 8.371094 10.632812 8.441406 10.671875 C 8.515625 10.710938 8.539062 10.800781 8.5 10.871094 L 8.332031 11.183594 C 8.304688 11.230469 8.253906 11.261719 8.203125 11.261719 Z M 11.089844 8.011719 C 11.039062 8.011719 10.988281 7.984375 10.964844 7.9375 C 10.9375 7.894531 10.933594 7.839844 10.960938 7.792969 L 12.355469 5.246094 L 11.757812 4.917969 L 11.617188 5.183594 C 11.574219 5.253906 11.488281 5.28125 11.414062 5.242188 C 11.34375 5.203125 11.316406 5.113281 11.355469 5.042969 L 11.570312 4.648438 C 11.609375 4.578125 11.699219 4.550781 11.773438 4.589844 L 12.625 5.058594 C 12.699219 5.097656 12.722656 5.1875 12.683594 5.257812 L 11.21875 7.933594 C 11.195312 7.980469 11.144531 8.011719 11.089844 8.011719 Z M 11.089844 8.011719 "/>
</g>
</svg>
